<svg width="34" height="36" viewBox="0 0 34 36" fill="none" xmlns="http://www.w3.org/2000/svg">
<path d="M10.4854 33.871C10.5085 31.4285 10.9033 29.0686 11.5945 26.8702C11.8246 26.1771 11.6643 25.4011 11.1665 24.8605L7.527 21.7106C10.0943 16.1127 14.8931 10.8919 20.3764 8.13968L23.4314 12.0392C23.9478 12.58 24.6727 12.7452 25.3266 12.5325C27.4008 11.8158 29.6206 11.458 31.9113 11.4781C32.917 11.4869 33.7636 10.6006 33.7737 9.52825L33.8385 2.65722C33.8487 1.58487 33.4139 0.290146 32.0171 0.277893C14.7153 0.126116 0.192679 15.3506 0.0187245 33.7792C0.00541549 35.1892 1.17348 35.7555 2.1978 35.7645L8.62309 35.8209C9.62879 35.8297 10.4753 34.9434 10.4854 33.871Z" fill="black"/>
</svg>
